<?xml version="1.0" encoding="UTF-8"?>
<svg width="18px" height="18px" viewBox="0 0 18 18" version="1.1" xmlns="http://www.w3.org/2000/svg" xmlns:xlink="http://www.w3.org/1999/xlink">
    <!-- Generator: Sketch 42 (36781) - http://www.bohemiancoding.com/sketch -->
    <title>ico_clock_time</title>
    <desc>Created with Sketch.</desc>
    <defs></defs>
    <g id="Page-1" stroke="none" stroke-width="1" fill="none" fill-rule="evenodd">
        <g id="ico_clock_time" fill="#B0B6BE" fill-rule="nonzero">
            <path d="M8.99199976,1 C13.4160003,1 17,4.58399963 17,9 C17,13.4160003 13.4160003,17 8.99199976,17 C4.57600021,17 1,13.4160003 1,9 C1,4.58400001 4.57600021,1 8.99199976,1 Z M8.99199976,2 C5.13011936,2 2,5.13444872 2,9 C2,12.8655515 5.13011924,16 8.99199976,16 C12.8626325,16 16,12.8647977 16,9 C16,5.13520226 12.8626325,2 8.99199976,2 Z M9.5,5 L9.5,8.75024118 L13.2544333,10.9695773 L12.7455667,11.8304227 L8.5,9.32076576 L8.5,5 L9.5,5 Z"></path>
        </g>
    </g>
</svg>