<?xml version="1.0" encoding="UTF-8"?>
<svg width="18px" height="18px" viewBox="0 0 18 18" version="1.1" xmlns="http://www.w3.org/2000/svg" xmlns:xlink="http://www.w3.org/1999/xlink">
    <!-- Generator: Sketch 42 (36781) - http://www.bohemiancoding.com/sketch -->
    <title>ico_folder_language</title>
    <desc>Created with Sketch.</desc>
    <defs></defs>
    <g id="Page-1" stroke="none" stroke-width="1" fill="none" fill-rule="evenodd">
        <g id="ico_folder_language" fill="#B0B6BE" fill-rule="nonzero">
            <path d="M3.93843069,7.3171521 C3.95401927,7.3171521 3.96639136,7.31084503 3.96919495,7.3171521 L3.93843069,7.3171521 Z M17.0574149,7.3171521 C17.0551218,7.3171521 17.0529203,7.31714983 17.0508067,7.3171521 L17.0574149,7.3171521 Z M0.02798906,15.7689032 C0.00969510865,15.7156221 0,15.6584427 0,15.5989726 L0,2.03205899 C0,1.45894852 0.454978326,1 1.00960769,1 L6.38461538,1 C6.54392283,1 6.69369513,1.07861688 6.78787775,1.21167619 L8.10920203,3.07841656 L15.2903923,3.07841656 C15.8450217,3.07841656 16.3,3.53736508 16.2999945,4.10803982 L16.3098674,6.2815534 L17.0574149,6.2815534 C17.6642753,6.2815534 18,6.81299581 18,7.41530682 L17.9712701,7.58829993 L15.0040166,16.2519513 C14.8930351,16.6909619 14.5144947,17 14.0777328,17 L0.958748538,17 C0.348503835,17 -0.0941752079,16.4156446 0.02798906,15.7689032 Z M1,12.831081 L3.03769511,7.0200544 C3.15225752,6.59092182 3.53292317,6.29699746 3.96390516,6.29699746 L15.3099275,6.29699746 L15.3,4.11047555 C15.3,4.1154926 7.85576923,4.11401527 7.85576923,4.11401527 C7.69646178,4.11401527 7.54668948,4.03539838 7.45250687,3.90233907 L6.13118258,2.03559871 L1.00960769,2.03559871 C1.00146455,2.03559871 1,12.831081 1,12.831081 Z M3.96919495,7.3171521 C3.97038378,7.31982654 1.01109084,15.9644013 1.01109084,15.9644013 L14.046955,15.9644013 C14.0457244,15.961699 17.0031146,7.3171521 17.0031146,7.3171521 L3.96919495,7.3171521 Z"></path>
        </g>
    </g>
</svg>