<?xml version="1.0" encoding="UTF-8"?>
<svg width="18px" height="18px" viewBox="0 0 18 18" version="1.1" xmlns="http://www.w3.org/2000/svg" xmlns:xlink="http://www.w3.org/1999/xlink">
    <!-- Generator: Sketch 42 (36781) - http://www.bohemiancoding.com/sketch -->
    <title>ico_circle_arrow_down_outline</title>
    <desc>Created with Sketch.</desc>
    <defs></defs>
    <g id="Page-1" stroke="none" stroke-width="1" fill="none" fill-rule="evenodd">
        <g id="ico_circle_arrow_down_outline" fill="#C1C6CC">
            <path d="M1,9 C1,13.4189747 4.58132574,17 9,17 C13.4189747,17 17,13.4186743 17,9 C17,4.58102534 13.4186743,1 9,1 C4.58102534,1 1,4.58132574 1,9 Z M0,9 C0,4.02943725 4.02834436,0 9,0 C13.9705627,0 18,4.02834436 18,9 C18,13.9705627 13.9716556,18 9,18 C4.02943725,18 0,13.9716556 0,9 Z" id="bubble" fill-rule="nonzero" transform="translate(9.000000, 9.000000) rotate(-90.000000) translate(-9.000000, -9.000000) "></path>
            <polygon id="arrow" transform="translate(10.000000, 9.000000) rotate(-90.000000) translate(-10.000000, -9.000000) " points="6.17499987 6 10 9.70850198 13.8250001 6 15 7.14170031 10 12 5 7.14170031"></polygon>
        </g>
    </g>
</svg>