<?xml version="1.0" encoding="UTF-8"?>
<svg width="20px" height="19px" viewBox="0 0 20 19" version="1.1" xmlns="http://www.w3.org/2000/svg" xmlns:xlink="http://www.w3.org/1999/xlink">
    <!-- Generator: Sketch 42 (36781) - http://www.bohemiancoding.com/sketch -->
    <title>ico_star_outline</title>
    <desc>Created with Sketch.</desc>
    <defs></defs>
    <g id="Page-1" stroke="none" stroke-width="1" fill="none" fill-rule="evenodd">
        <g id="ico_star_outline" fill-rule="nonzero" fill="#FFCE52">
            <path d="M12.7512185,11.3434212 L16.0982412,8.44389391 L11.6957563,8.07038708 L9.96968981,3.99785212 L8.24362273,8.07038708 L3.84113954,8.44389381 L7.18816294,11.3434211 L6.1833124,15.6507995 L9.9696901,13.365494 L13.7560688,15.6507999 L12.7512185,11.3434212 Z M9.96969014,15.7015458 L4.87746285,18.7750096 C3.92684159,19.3487664 3.36298181,18.9370218 3.61487316,17.8572679 L4.96620848,12.0646526 L0.467250236,8.16720381 C-0.37261906,7.43962481 -0.15595947,6.77582282 0.948369094,6.68213157 L6.87282105,6.17950099 L9.18821931,0.716480204 C9.6204598,-0.303361096 10.3195664,-0.301836754 10.7511607,0.716480204 L13.0665581,6.17950099 L18.9910109,6.68213157 C20.0969927,6.77596307 20.3107441,7.44071231 19.4721303,8.16720381 L14.9731728,12.0646526 L16.3245078,17.8572679 C16.5767761,18.9386381 16.0111183,19.3479088 15.0619178,18.7750096 L9.96969014,15.7015458 Z" id="ico_star_filled"></path>
        </g>
    </g>
</svg>