<?xml version="1.0" encoding="UTF-8"?>
<svg width="30px" height="30px" viewBox="0 0 30 30" version="1.1" xmlns="http://www.w3.org/2000/svg" xmlns:xlink="http://www.w3.org/1999/xlink">
    <!-- Generator: Sketch 42 (36781) - http://www.bohemiancoding.com/sketch -->
    <title>ico_facebook</title>
    <desc>Created with Sketch.</desc>
    <defs></defs>
    <g id="Page-1" stroke="none" stroke-width="1" fill="none" fill-rule="evenodd">
        <g id="ico_facebook" fill="#304C95">
            <path d="M0,15 C0,6.71572875 6.71390727,0 15,0 L15,0 C23.2842712,0 30,6.71390727 30,15 L30,15 C30,23.2842712 23.2860927,30 15,30 L15,30 C6.71572875,30 0,23.2860927 0,15 L0,15 Z M12.7291577,9.79235873 L12.7291577,12.1329258 L11,12.1329258 L11,14.9949804 L12.7291577,14.9949804 L12.7291577,23.5 L16.2812148,23.5 L16.2812148,14.9952175 L18.66481,14.9952175 C18.66481,14.9952175 18.8880442,13.6228843 18.9962535,12.1223728 L16.2946463,12.1223728 L16.2946463,10.1654709 C16.2946463,9.8729889 16.6819282,9.47956114 17.0647064,9.47956114 L19,9.47956114 L19,6.5 L16.3686591,6.5 C12.6413547,6.49980238 12.7291577,9.36470268 12.7291577,9.79235873 Z"></path>
        </g>
    </g>
</svg>